<svg width="818" height="287" viewBox="0 0 818 287" fill="none" xmlns="http://www.w3.org/2000/svg">
<rect width="818" height="287" fill="white"/>
<line x1="95" y1="134" x2="341" y2="134" stroke="#F47D21" stroke-width="2"/>
<path d="M219 171.667C216.054 171.667 213.667 174.054 213.667 177C213.667 179.946 216.054 182.333 219 182.333C221.946 182.333 224.333 179.946 224.333 177C224.333 174.054 221.946 171.667 219 171.667ZM218 135L218 177L220 177L220 135L218 135Z" fill="#F47D21"/>
<path d="M437 171.667C434.054 171.667 431.667 174.054 431.667 177C431.667 179.946 434.054 182.333 437 182.333C439.946 182.333 442.333 179.946 442.333 177C442.333 174.054 439.946 171.667 437 171.667ZM436 135L436 177L438 177L438 135L436 135Z" fill="#047EAA"/>
<path d="M637 171.667C634.054 171.667 631.667 174.054 631.667 177C631.667 179.946 634.054 182.333 637 182.333C639.946 182.333 642.333 179.946 642.333 177C642.333 174.054 639.946 171.667 637 171.667ZM636 135L636 177L638 177L638 135L636 135Z" fill="black"/>
<line x1="361" y1="134" x2="513" y2="134" stroke="#047EAA" stroke-width="2"/>
<line x1="542" y1="134" x2="731" y2="134" stroke="#202020" stroke-width="2"/>
<path d="M101.63 85.44C102.497 84.52 103.457 83.7867 104.51 83.24C105.564 82.6933 106.777 82.42 108.15 82.42C109.257 82.42 110.23 82.6067 111.07 82.98C111.924 83.34 112.63 83.86 113.19 84.54C113.764 85.2067 114.197 86.0133 114.49 86.96C114.784 87.9067 114.93 88.9533 114.93 90.1V103H111.35V90.1C111.35 88.5667 110.997 87.38 110.29 86.54C109.597 85.6867 108.537 85.26 107.11 85.26C106.057 85.26 105.07 85.5133 104.15 86.02C103.244 86.5267 102.404 87.2133 101.63 88.08V103H98.0505V73.54H101.63V85.44ZM126.302 103.32C124.702 103.32 123.468 102.873 122.602 101.98C121.748 101.087 121.322 99.8 121.322 98.12V85.72H118.882C118.668 85.72 118.488 85.66 118.342 85.54C118.195 85.4067 118.122 85.2067 118.122 84.94V83.52L121.442 83.1L122.262 76.84C122.302 76.64 122.388 76.48 122.522 76.36C122.668 76.2267 122.855 76.16 123.082 76.16H124.882V83.14H134.422L135.242 76.84C135.282 76.64 135.368 76.48 135.502 76.36C135.648 76.2267 135.835 76.16 136.062 76.16H137.862V83.14H143.722V85.72H137.862V97.88C137.862 98.7333 138.068 99.3667 138.482 99.78C138.908 100.193 139.442 100.4 140.082 100.4C140.455 100.4 140.775 100.353 141.042 100.26C141.322 100.153 141.562 100.04 141.762 99.92C141.962 99.8 142.128 99.6933 142.262 99.6C142.408 99.4933 142.535 99.44 142.642 99.44C142.842 99.44 143.008 99.5533 143.142 99.78L144.202 101.48C143.575 102.053 142.828 102.507 141.962 102.84C141.095 103.16 140.202 103.32 139.282 103.32C137.695 103.32 136.468 102.873 135.602 101.98C134.735 101.087 134.302 99.8 134.302 98.12V85.72H124.882V97.88C124.882 98.7333 125.088 99.3667 125.502 99.78C125.915 100.193 126.448 100.4 127.102 100.4C127.475 100.4 127.795 100.353 128.062 100.26C128.342 100.153 128.582 100.04 128.782 99.92C128.982 99.8 129.148 99.6933 129.282 99.6C129.428 99.4933 129.555 99.44 129.662 99.44C129.848 99.44 130.015 99.5533 130.162 99.78L131.202 101.48C130.588 102.053 129.848 102.507 128.982 102.84C128.115 103.16 127.222 103.32 126.302 103.32ZM150.966 98.12C151.62 99 152.333 99.62 153.106 99.98C153.88 100.34 154.746 100.52 155.706 100.52C157.6 100.52 159.053 99.8467 160.066 98.5C161.08 97.1533 161.586 95.2333 161.586 92.74C161.586 91.42 161.466 90.2867 161.226 89.34C161 88.3933 160.666 87.62 160.226 87.02C159.786 86.4067 159.246 85.96 158.606 85.68C157.966 85.4 157.24 85.26 156.426 85.26C155.266 85.26 154.246 85.5267 153.366 86.06C152.5 86.5933 151.7 87.3467 150.966 88.32V98.12ZM150.786 85.88C151.64 84.8267 152.626 83.98 153.746 83.34C154.866 82.7 156.146 82.38 157.586 82.38C158.76 82.38 159.82 82.6067 160.766 83.06C161.713 83.5 162.52 84.16 163.186 85.04C163.853 85.9067 164.366 86.9867 164.726 88.28C165.086 89.5733 165.266 91.06 165.266 92.74C165.266 94.2333 165.066 95.6267 164.666 96.92C164.266 98.2 163.686 99.3133 162.926 100.26C162.18 101.193 161.26 101.933 160.166 102.48C159.086 103.013 157.866 103.28 156.506 103.28C155.266 103.28 154.2 103.073 153.306 102.66C152.426 102.233 151.646 101.647 150.966 100.9V109.86H147.386V82.74H149.526C150.033 82.74 150.346 82.9867 150.466 83.48L150.786 85.88ZM181.608 86.08C181.448 86.3733 181.202 86.52 180.868 86.52C180.668 86.52 180.442 86.4467 180.188 86.3C179.935 86.1533 179.622 85.9933 179.248 85.82C178.888 85.6333 178.455 85.4667 177.948 85.32C177.442 85.16 176.842 85.08 176.148 85.08C175.548 85.08 175.008 85.16 174.528 85.32C174.048 85.4667 173.635 85.6733 173.288 85.94C172.955 86.2067 172.695 86.52 172.508 86.88C172.335 87.2267 172.248 87.6067 172.248 88.02C172.248 88.54 172.395 88.9733 172.688 89.32C172.995 89.6667 173.395 89.9667 173.888 90.22C174.382 90.4733 174.942 90.7 175.568 90.9C176.195 91.0867 176.835 91.2933 177.488 91.52C178.155 91.7333 178.802 91.9733 179.428 92.24C180.055 92.5067 180.615 92.84 181.108 93.24C181.602 93.64 181.995 94.1333 182.288 94.72C182.595 95.2933 182.748 95.9867 182.748 96.8C182.748 97.7333 182.582 98.6 182.248 99.4C181.915 100.187 181.422 100.873 180.768 101.46C180.115 102.033 179.315 102.487 178.368 102.82C177.422 103.153 176.328 103.32 175.088 103.32C173.675 103.32 172.395 103.093 171.248 102.64C170.102 102.173 169.128 101.58 168.328 100.86L169.168 99.5C169.275 99.3267 169.402 99.1933 169.548 99.1C169.695 99.0067 169.882 98.96 170.108 98.96C170.348 98.96 170.602 99.0533 170.868 99.24C171.135 99.4267 171.455 99.6333 171.828 99.86C172.215 100.087 172.682 100.293 173.228 100.48C173.775 100.667 174.455 100.76 175.268 100.76C175.962 100.76 176.568 100.673 177.088 100.5C177.608 100.313 178.042 100.067 178.388 99.76C178.735 99.4533 178.988 99.1 179.148 98.7C179.322 98.3 179.408 97.8733 179.408 97.42C179.408 96.86 179.255 96.4 178.948 96.04C178.655 95.6667 178.262 95.3533 177.768 95.1C177.275 94.8333 176.708 94.6067 176.068 94.42C175.442 94.22 174.795 94.0133 174.128 93.8C173.475 93.5867 172.828 93.3467 172.188 93.08C171.562 92.8 171.002 92.4533 170.508 92.04C170.015 91.6267 169.615 91.12 169.308 90.52C169.015 89.9067 168.868 89.1667 168.868 88.3C168.868 87.5267 169.028 86.7867 169.348 86.08C169.668 85.36 170.135 84.7333 170.748 84.2C171.362 83.6533 172.115 83.22 173.008 82.9C173.902 82.58 174.922 82.42 176.068 82.42C177.402 82.42 178.595 82.6333 179.648 83.06C180.715 83.4733 181.635 84.0467 182.408 84.78L181.608 86.08ZM186.793 100.8C186.793 100.453 186.853 100.127 186.973 99.82C187.106 99.5133 187.28 99.2467 187.493 99.02C187.72 98.7933 187.986 98.6133 188.293 98.48C188.6 98.3467 188.926 98.28 189.273 98.28C189.62 98.28 189.946 98.3467 190.253 98.48C190.56 98.6133 190.826 98.7933 191.053 99.02C191.28 99.2467 191.46 99.5133 191.593 99.82C191.726 100.127 191.793 100.453 191.793 100.8C191.793 101.16 191.726 101.493 191.593 101.8C191.46 102.093 191.28 102.353 191.053 102.58C190.826 102.807 190.56 102.98 190.253 103.1C189.946 103.233 189.62 103.3 189.273 103.3C188.926 103.3 188.6 103.233 188.293 103.1C187.986 102.98 187.72 102.807 187.493 102.58C187.28 102.353 187.106 102.093 186.973 101.8C186.853 101.493 186.793 101.16 186.793 100.8ZM186.793 85.8C186.793 85.4533 186.853 85.1267 186.973 84.82C187.106 84.5133 187.28 84.2467 187.493 84.02C187.72 83.7933 187.986 83.6133 188.293 83.48C188.6 83.3467 188.926 83.28 189.273 83.28C189.62 83.28 189.946 83.3467 190.253 83.48C190.56 83.6133 190.826 83.7933 191.053 84.02C191.28 84.2467 191.46 84.5133 191.593 84.82C191.726 85.1267 191.793 85.4533 191.793 85.8C191.793 86.16 191.726 86.4933 191.593 86.8C191.46 87.0933 191.28 87.3533 191.053 87.58C190.826 87.8067 190.56 87.9867 190.253 88.12C189.946 88.24 189.62 88.3 189.273 88.3C188.926 88.3 188.6 88.24 188.293 88.12C187.986 87.9867 187.72 87.8067 187.493 87.58C187.28 87.3533 187.106 87.0933 186.973 86.8C186.853 86.4933 186.793 86.16 186.793 85.8ZM199.073 103.42C198.9 103.887 198.626 104.233 198.253 104.46C197.893 104.687 197.52 104.8 197.133 104.8H195.633L207.653 74.86C207.813 74.4333 208.053 74.1067 208.373 73.88C208.706 73.6533 209.086 73.54 209.513 73.54H211.033L199.073 103.42ZM208.214 103.42C208.04 103.887 207.767 104.233 207.394 104.46C207.034 104.687 206.66 104.8 206.274 104.8H204.774L216.794 74.86C216.954 74.4333 217.194 74.1067 217.514 73.88C217.847 73.6533 218.227 73.54 218.654 73.54H220.174L208.214 103.42ZM235.704 87.56C235.037 86.6667 234.317 86.0467 233.544 85.7C232.77 85.34 231.904 85.16 230.944 85.16C229.064 85.16 227.617 85.8333 226.604 87.18C225.59 88.5267 225.084 90.4467 225.084 92.94C225.084 94.26 225.197 95.3933 225.424 96.34C225.65 97.2733 225.984 98.0467 226.424 98.66C226.864 99.26 227.404 99.7 228.044 99.98C228.684 100.26 229.41 100.4 230.224 100.4C231.397 100.4 232.417 100.133 233.284 99.6C234.164 99.0667 234.97 98.3133 235.704 97.34V87.56ZM239.264 73.54V103H237.144C236.637 103 236.317 102.753 236.184 102.26L235.864 99.8C234.997 100.84 234.01 101.68 232.904 102.32C231.797 102.96 230.517 103.28 229.064 103.28C227.904 103.28 226.85 103.06 225.904 102.62C224.957 102.167 224.15 101.507 223.484 100.64C222.817 99.7733 222.304 98.6933 221.944 97.4C221.584 96.1067 221.404 94.62 221.404 92.94C221.404 91.4467 221.604 90.06 222.004 88.78C222.404 87.4867 222.977 86.3667 223.724 85.42C224.47 84.4733 225.384 83.7333 226.464 83.2C227.557 82.6533 228.784 82.38 230.144 82.38C231.384 82.38 232.444 82.5933 233.324 83.02C234.217 83.4333 235.01 84.0133 235.704 84.76V73.54H239.264ZM253.426 82.42C254.906 82.42 256.24 82.6667 257.426 83.16C258.613 83.6533 259.626 84.3533 260.466 85.26C261.306 86.1667 261.946 87.2667 262.386 88.56C262.84 89.84 263.066 91.2733 263.066 92.86C263.066 94.46 262.84 95.9 262.386 97.18C261.946 98.46 261.306 99.5533 260.466 100.46C259.626 101.367 258.613 102.067 257.426 102.56C256.24 103.04 254.906 103.28 253.426 103.28C251.933 103.28 250.586 103.04 249.386 102.56C248.2 102.067 247.186 101.367 246.346 100.46C245.506 99.5533 244.86 98.46 244.406 97.18C243.966 95.9 243.746 94.46 243.746 92.86C243.746 91.2733 243.966 89.84 244.406 88.56C244.86 87.2667 245.506 86.1667 246.346 85.26C247.186 84.3533 248.2 83.6533 249.386 83.16C250.586 82.6667 251.933 82.42 253.426 82.42ZM253.426 100.5C255.426 100.5 256.92 99.8333 257.906 98.5C258.893 97.1533 259.386 95.28 259.386 92.88C259.386 90.4667 258.893 88.5867 257.906 87.24C256.92 85.8933 255.426 85.22 253.426 85.22C252.413 85.22 251.526 85.3933 250.766 85.74C250.02 86.0867 249.393 86.5867 248.886 87.24C248.393 87.8933 248.02 88.7 247.766 89.66C247.526 90.6067 247.406 91.68 247.406 92.88C247.406 95.28 247.9 97.1533 248.886 98.5C249.886 99.8333 251.4 100.5 253.426 100.5ZM271.342 82.74V103H267.782V82.74H271.342ZM272.102 76.38C272.102 76.7267 272.028 77.0533 271.882 77.36C271.748 77.6533 271.562 77.92 271.322 78.16C271.095 78.3867 270.822 78.5667 270.502 78.7C270.195 78.8333 269.868 78.9 269.522 78.9C269.175 78.9 268.848 78.8333 268.542 78.7C268.248 78.5667 267.988 78.3867 267.762 78.16C267.535 77.92 267.355 77.6533 267.222 77.36C267.088 77.0533 267.022 76.7267 267.022 76.38C267.022 76.0333 267.088 75.7067 267.222 75.4C267.355 75.08 267.535 74.8067 267.762 74.58C267.988 74.34 268.248 74.1533 268.542 74.02C268.848 73.8867 269.175 73.82 269.522 73.82C269.868 73.82 270.195 73.8867 270.502 74.02C270.822 74.1533 271.095 74.34 271.322 74.58C271.562 74.8067 271.748 75.08 271.882 75.4C272.028 75.7067 272.102 76.0333 272.102 76.38ZM276.591 100.8C276.591 100.453 276.651 100.127 276.771 99.82C276.904 99.5133 277.078 99.2467 277.291 99.02C277.518 98.7933 277.784 98.6133 278.091 98.48C278.398 98.3467 278.724 98.28 279.071 98.28C279.418 98.28 279.744 98.3467 280.051 98.48C280.358 98.6133 280.624 98.7933 280.851 99.02C281.078 99.2467 281.258 99.5133 281.391 99.82C281.524 100.127 281.591 100.453 281.591 100.8C281.591 101.16 281.524 101.493 281.391 101.8C281.258 102.093 281.078 102.353 280.851 102.58C280.624 102.807 280.358 102.98 280.051 103.1C279.744 103.233 279.418 103.3 279.071 103.3C278.724 103.3 278.398 103.233 278.091 103.1C277.784 102.98 277.518 102.807 277.291 102.58C277.078 102.353 276.904 102.093 276.771 101.8C276.651 101.493 276.591 101.16 276.591 100.8ZM295.184 82.42C296.664 82.42 297.998 82.6667 299.184 83.16C300.371 83.6533 301.384 84.3533 302.224 85.26C303.064 86.1667 303.704 87.2667 304.144 88.56C304.598 89.84 304.824 91.2733 304.824 92.86C304.824 94.46 304.598 95.9 304.144 97.18C303.704 98.46 303.064 99.5533 302.224 100.46C301.384 101.367 300.371 102.067 299.184 102.56C297.998 103.04 296.664 103.28 295.184 103.28C293.691 103.28 292.344 103.04 291.144 102.56C289.958 102.067 288.944 101.367 288.104 100.46C287.264 99.5533 286.618 98.46 286.164 97.18C285.724 95.9 285.504 94.46 285.504 92.86C285.504 91.2733 285.724 89.84 286.164 88.56C286.618 87.2667 287.264 86.1667 288.104 85.26C288.944 84.3533 289.958 83.6533 291.144 83.16C292.344 82.6667 293.691 82.42 295.184 82.42ZM295.184 100.5C297.184 100.5 298.678 99.8333 299.664 98.5C300.651 97.1533 301.144 95.28 301.144 92.88C301.144 90.4667 300.651 88.5867 299.664 87.24C298.678 85.8933 297.184 85.22 295.184 85.22C294.171 85.22 293.284 85.3933 292.524 85.74C291.778 86.0867 291.151 86.5867 290.644 87.24C290.151 87.8933 289.778 88.7 289.524 89.66C289.284 90.6067 289.164 91.68 289.164 92.88C289.164 95.28 289.658 97.1533 290.644 98.5C291.644 99.8333 293.158 100.5 295.184 100.5ZM312.72 86.8C313.36 85.4133 314.146 84.3333 315.08 83.56C316.013 82.7733 317.153 82.38 318.5 82.38C318.926 82.38 319.333 82.4267 319.72 82.52C320.12 82.6133 320.473 82.76 320.78 82.96L320.52 85.62C320.44 85.9533 320.24 86.12 319.92 86.12C319.733 86.12 319.46 86.08 319.1 86C318.74 85.92 318.333 85.88 317.88 85.88C317.24 85.88 316.666 85.9733 316.16 86.16C315.666 86.3467 315.22 86.6267 314.82 87C314.433 87.36 314.08 87.8133 313.76 88.36C313.453 88.8933 313.173 89.5067 312.92 90.2V103H309.34V82.74H311.38C311.766 82.74 312.033 82.8133 312.18 82.96C312.326 83.1067 312.426 83.36 312.48 83.72L312.72 86.8ZM330.501 93.1C331.221 93.1 331.854 93 332.401 92.8C332.948 92.6 333.408 92.32 333.781 91.96C334.154 91.6 334.434 91.1733 334.621 90.68C334.808 90.1733 334.901 89.62 334.901 89.02C334.901 87.78 334.521 86.7933 333.761 86.06C333.014 85.3267 331.928 84.96 330.501 84.96C329.061 84.96 327.961 85.3267 327.201 86.06C326.454 86.7933 326.081 87.78 326.081 89.02C326.081 89.62 326.174 90.1733 326.361 90.68C326.561 91.1733 326.848 91.6 327.221 91.96C327.594 92.32 328.054 92.6 328.601 92.8C329.148 93 329.781 93.1 330.501 93.1ZM336.921 104.1C336.921 103.607 336.781 103.207 336.501 102.9C336.221 102.593 335.841 102.353 335.361 102.18C334.894 102.007 334.348 101.887 333.721 101.82C333.094 101.74 332.428 101.68 331.721 101.64C331.028 101.6 330.321 101.56 329.601 101.52C328.881 101.48 328.188 101.413 327.521 101.32C326.774 101.667 326.161 102.107 325.681 102.64C325.214 103.16 324.981 103.773 324.981 104.48C324.981 104.933 325.094 105.353 325.321 105.74C325.561 106.14 325.921 106.48 326.401 106.76C326.881 107.053 327.481 107.28 328.201 107.44C328.934 107.613 329.794 107.7 330.781 107.7C331.741 107.7 332.601 107.613 333.361 107.44C334.121 107.267 334.761 107.02 335.281 106.7C335.814 106.38 336.221 106 336.501 105.56C336.781 105.12 336.921 104.633 336.921 104.1ZM340.541 83.54V84.86C340.541 85.3 340.261 85.58 339.701 85.7L337.401 86C337.854 86.88 338.081 87.8533 338.081 88.92C338.081 89.9067 337.888 90.8067 337.501 91.62C337.128 92.42 336.608 93.1067 335.941 93.68C335.274 94.2533 334.474 94.6933 333.541 95C332.608 95.3067 331.594 95.46 330.501 95.46C329.554 95.46 328.661 95.3467 327.821 95.12C327.394 95.3867 327.068 95.6733 326.841 95.98C326.614 96.2733 326.501 96.5733 326.501 96.88C326.501 97.36 326.694 97.7267 327.081 97.98C327.481 98.22 328.001 98.3933 328.641 98.5C329.281 98.6067 330.008 98.6733 330.821 98.7C331.648 98.7267 332.488 98.7733 333.341 98.84C334.208 98.8933 335.048 98.9933 335.861 99.14C336.688 99.2867 337.421 99.5267 338.061 99.86C338.701 100.193 339.214 100.653 339.601 101.24C340.001 101.827 340.201 102.587 340.201 103.52C340.201 104.387 339.981 105.227 339.541 106.04C339.114 106.853 338.494 107.573 337.681 108.2C336.868 108.84 335.868 109.347 334.681 109.72C333.508 110.107 332.181 110.3 330.701 110.3C329.221 110.3 327.928 110.153 326.821 109.86C325.714 109.567 324.794 109.173 324.061 108.68C323.328 108.187 322.774 107.613 322.401 106.96C322.041 106.32 321.861 105.647 321.861 104.94C321.861 103.94 322.174 103.093 322.801 102.4C323.428 101.707 324.288 101.153 325.381 100.74C324.781 100.473 324.301 100.12 323.941 99.68C323.594 99.2267 323.421 98.62 323.421 97.86C323.421 97.5667 323.474 97.2667 323.581 96.96C323.688 96.64 323.848 96.3267 324.061 96.02C324.288 95.7 324.561 95.4 324.881 95.12C325.201 94.84 325.574 94.5933 326.001 94.38C325.001 93.82 324.221 93.08 323.661 92.16C323.101 91.2267 322.821 90.1467 322.821 88.92C322.821 87.9333 323.008 87.04 323.381 86.24C323.768 85.4267 324.301 84.74 324.981 84.18C325.661 83.6067 326.468 83.1667 327.401 82.86C328.348 82.5533 329.381 82.4 330.501 82.4C331.381 82.4 332.201 82.5 332.961 82.7C333.721 82.8867 334.414 83.1667 335.041 83.54H340.541Z" fill="#F47D21"/>
<path d="M346.182 103.42C346.009 103.887 345.736 104.233 345.362 104.46C345.002 104.687 344.629 104.8 344.242 104.8H342.742L354.762 74.86C354.922 74.4333 355.162 74.1067 355.482 73.88C355.816 73.6533 356.196 73.54 356.622 73.54H358.142L346.182 103.42ZM379.848 100.28V103H364.488V100.28H370.628V80.74C370.628 80.1533 370.648 79.56 370.688 78.96L365.588 83.34C365.415 83.4867 365.242 83.58 365.068 83.62C364.895 83.6467 364.735 83.6467 364.588 83.62C364.442 83.5933 364.302 83.54 364.168 83.46C364.048 83.38 363.955 83.2933 363.888 83.2L362.768 81.66L371.308 74.28H374.208V100.28H379.848ZM404.691 88.68C404.691 91.1867 404.418 93.36 403.871 95.2C403.338 97.0267 402.605 98.54 401.671 99.74C400.738 100.94 399.631 101.833 398.351 102.42C397.085 103.007 395.725 103.3 394.271 103.3C392.805 103.3 391.438 103.007 390.171 102.42C388.918 101.833 387.825 100.94 386.891 99.74C385.958 98.54 385.225 97.0267 384.691 95.2C384.158 93.36 383.891 91.1867 383.891 88.68C383.891 86.1733 384.158 84 384.691 82.16C385.225 80.32 385.958 78.8 386.891 77.6C387.825 76.3867 388.918 75.4867 390.171 74.9C391.438 74.3133 392.805 74.02 394.271 74.02C395.725 74.02 397.085 74.3133 398.351 74.9C399.631 75.4867 400.738 76.3867 401.671 77.6C402.605 78.8 403.338 80.32 403.871 82.16C404.418 84 404.691 86.1733 404.691 88.68ZM400.991 88.68C400.991 86.4933 400.805 84.66 400.431 83.18C400.071 81.6867 399.578 80.4867 398.951 79.58C398.338 78.6733 397.625 78.0267 396.811 77.64C395.998 77.24 395.151 77.04 394.271 77.04C393.391 77.04 392.545 77.24 391.731 77.64C390.918 78.0267 390.205 78.6733 389.591 79.58C388.978 80.4867 388.485 81.6867 388.111 83.18C387.751 84.66 387.571 86.4933 387.571 88.68C387.571 90.8667 387.751 92.7 388.111 94.18C388.485 95.66 388.978 96.8533 389.591 97.76C390.205 98.6667 390.918 99.32 391.731 99.72C392.545 100.107 393.391 100.3 394.271 100.3C395.151 100.3 395.998 100.107 396.811 99.72C397.625 99.32 398.338 98.6667 398.951 97.76C399.578 96.8533 400.071 95.66 400.431 94.18C400.805 92.7 400.991 90.8667 400.991 88.68ZM408.115 100.8C408.115 100.453 408.175 100.127 408.295 99.82C408.428 99.5133 408.601 99.2467 408.815 99.02C409.041 98.7933 409.308 98.6133 409.615 98.48C409.921 98.3467 410.248 98.28 410.595 98.28C410.941 98.28 411.268 98.3467 411.575 98.48C411.881 98.6133 412.148 98.7933 412.375 99.02C412.601 99.2467 412.781 99.5133 412.915 99.82C413.048 100.127 413.115 100.453 413.115 100.8C413.115 101.16 413.048 101.493 412.915 101.8C412.781 102.093 412.601 102.353 412.375 102.58C412.148 102.807 411.881 102.98 411.575 103.1C411.268 103.233 410.941 103.3 410.595 103.3C410.248 103.3 409.921 103.233 409.615 103.1C409.308 102.98 409.041 102.807 408.815 102.58C408.601 102.353 408.428 102.093 408.295 101.8C408.175 101.493 408.115 101.16 408.115 100.8ZM435.708 100.28V103H420.348V100.28H426.488V80.74C426.488 80.1533 426.508 79.56 426.548 78.96L421.448 83.34C421.274 83.4867 421.101 83.58 420.928 83.62C420.754 83.6467 420.594 83.6467 420.448 83.62C420.301 83.5933 420.161 83.54 420.028 83.46C419.908 83.38 419.814 83.2933 419.748 83.2L418.628 81.66L427.168 74.28H430.068V100.28H435.708ZM450.111 100.36C451.071 100.36 451.937 100.207 452.711 99.9C453.497 99.5933 454.164 99.1667 454.711 98.62C455.271 98.0733 455.697 97.4267 455.991 96.68C456.297 95.9333 456.451 95.12 456.451 94.24C456.451 93.3067 456.304 92.4667 456.011 91.72C455.717 90.96 455.297 90.32 454.751 89.8C454.217 89.2667 453.577 88.86 452.831 88.58C452.084 88.3 451.264 88.16 450.371 88.16C449.411 88.16 448.544 88.3267 447.771 88.66C446.997 88.98 446.337 89.42 445.791 89.98C445.257 90.5267 444.844 91.1667 444.551 91.9C444.271 92.62 444.131 93.3733 444.131 94.16C444.131 95.08 444.264 95.92 444.531 96.68C444.797 97.44 445.184 98.0933 445.691 98.64C446.211 99.1867 446.837 99.6133 447.571 99.92C448.317 100.213 449.164 100.36 450.111 100.36ZM448.031 85.08C447.777 85.4 447.531 85.7133 447.291 86.02C447.064 86.3133 446.844 86.6067 446.631 86.9C447.311 86.4333 448.057 86.0733 448.871 85.82C449.684 85.5667 450.571 85.44 451.531 85.44C452.691 85.44 453.784 85.6333 454.811 86.02C455.837 86.3933 456.731 86.9467 457.491 87.68C458.264 88.4 458.877 89.2933 459.331 90.36C459.784 91.4133 460.011 92.62 460.011 93.98C460.011 95.3 459.771 96.5267 459.291 97.66C458.811 98.7933 458.137 99.78 457.271 100.62C456.417 101.46 455.384 102.12 454.171 102.6C452.971 103.08 451.644 103.32 450.191 103.32C448.751 103.32 447.444 103.093 446.271 102.64C445.097 102.173 444.097 101.52 443.271 100.68C442.457 99.8267 441.824 98.8 441.371 97.6C440.931 96.3867 440.711 95.0333 440.711 93.54C440.711 92.2867 440.984 90.9533 441.531 89.54C442.091 88.1133 442.977 86.5933 444.191 84.98L451.471 75.2C451.657 74.96 451.911 74.76 452.231 74.6C452.564 74.4267 452.944 74.34 453.371 74.34H456.531L448.031 85.08ZM476.354 92.66V80.84C476.354 80.4933 476.367 80.1133 476.394 79.7C476.421 79.2867 476.461 78.8667 476.514 78.44L466.074 92.66H476.354ZM483.814 92.66V94.7C483.814 94.9133 483.747 95.0933 483.614 95.24C483.494 95.3867 483.301 95.46 483.034 95.46H479.474V103H476.354V95.46H463.634C463.367 95.46 463.134 95.3867 462.934 95.24C462.747 95.08 462.627 94.8867 462.574 94.66L462.214 92.84L476.154 74.34H479.474V92.66H483.814ZM492.197 85.16C493.69 84.84 495.064 84.68 496.317 84.68C497.81 84.68 499.13 84.9 500.277 85.34C501.424 85.78 502.377 86.3867 503.137 87.16C503.91 87.9333 504.49 88.8467 504.877 89.9C505.277 90.9533 505.477 92.1 505.477 93.34C505.477 94.86 505.21 96.2333 504.677 97.46C504.157 98.6867 503.43 99.74 502.497 100.62C501.577 101.487 500.49 102.153 499.237 102.62C497.984 103.087 496.63 103.32 495.177 103.32C494.337 103.32 493.53 103.233 492.757 103.06C491.984 102.9 491.257 102.68 490.577 102.4C489.91 102.12 489.29 101.8 488.717 101.44C488.144 101.08 487.637 100.7 487.197 100.3L488.297 98.78C488.537 98.4333 488.85 98.26 489.237 98.26C489.504 98.26 489.804 98.3667 490.137 98.58C490.47 98.78 490.877 99.0067 491.357 99.26C491.837 99.5133 492.397 99.7467 493.037 99.96C493.69 100.16 494.464 100.26 495.357 100.26C496.357 100.26 497.257 100.1 498.057 99.78C498.857 99.46 499.544 99.0067 500.117 98.42C500.69 97.82 501.13 97.1067 501.437 96.28C501.744 95.4533 501.897 94.5267 501.897 93.5C501.897 92.6067 501.764 91.8 501.497 91.08C501.244 90.36 500.85 89.7467 500.317 89.24C499.797 88.7333 499.144 88.34 498.357 88.06C497.57 87.78 496.65 87.64 495.597 87.64C494.877 87.64 494.124 87.7 493.337 87.82C492.564 87.94 491.77 88.1333 490.957 88.4L488.717 87.74L491.017 74.34H504.597V75.9C504.597 76.4067 504.437 76.8267 504.117 77.16C503.81 77.48 503.277 77.64 502.517 77.64H493.517L492.197 85.16ZM529.78 74.34V75.94C529.78 76.3933 529.727 76.7667 529.62 77.06C529.527 77.3533 529.433 77.6 529.34 77.8L517.46 101.74C517.287 102.087 517.047 102.387 516.74 102.64C516.433 102.88 516.027 103 515.52 103H512.96L525 79.36C525.173 79.0267 525.353 78.72 525.54 78.44C525.727 78.16 525.927 77.8933 526.14 77.64H511.18C510.953 77.64 510.753 77.5533 510.58 77.38C510.407 77.1933 510.32 76.9867 510.32 76.76V74.34H529.78Z" fill="#047EAA"/>
<path d="M536.143 103.42C535.97 103.887 535.697 104.233 535.323 104.46C534.963 104.687 534.59 104.8 534.203 104.8H532.703L544.723 74.86C544.883 74.4333 545.123 74.1067 545.443 73.88C545.777 73.6533 546.157 73.54 546.583 73.54H548.103L536.143 103.42ZM561.569 89.2C562.676 89.2 563.649 89.0533 564.489 88.76C565.343 88.4667 566.056 88.06 566.629 87.54C567.216 87.0067 567.656 86.3733 567.949 85.64C568.243 84.9067 568.389 84.1 568.389 83.22C568.389 81.3933 567.823 79.9667 566.689 78.94C565.569 77.9133 563.863 77.4 561.569 77.4H556.969V89.2H561.569ZM561.569 74.34C563.383 74.34 564.956 74.5533 566.289 74.98C567.636 75.3933 568.749 75.9867 569.629 76.76C570.509 77.5333 571.163 78.4667 571.589 79.56C572.029 80.6533 572.249 81.8733 572.249 83.22C572.249 84.5533 572.016 85.7733 571.549 86.88C571.083 87.9867 570.396 88.94 569.489 89.74C568.596 90.54 567.483 91.1667 566.149 91.62C564.829 92.06 563.303 92.28 561.569 92.28H556.969V103H553.109V74.34H561.569ZM587.307 91.58V103H583.427V91.58L572.927 74.34H576.327C576.673 74.34 576.947 74.4267 577.147 74.6C577.347 74.76 577.52 74.9733 577.667 75.24L584.227 86.38C584.467 86.8467 584.687 87.2867 584.887 87.7C585.087 88.1 585.26 88.5067 585.407 88.92C585.553 88.5067 585.72 88.1 585.907 87.7C586.093 87.2867 586.3 86.8467 586.527 86.38L593.067 75.24C593.187 75.0133 593.353 74.8067 593.567 74.62C593.78 74.4333 594.053 74.34 594.387 74.34H597.807L587.307 91.58ZM604.935 103.32C603.335 103.32 602.101 102.873 601.235 101.98C600.381 101.087 599.955 99.8 599.955 98.12V85.72H597.515C597.301 85.72 597.121 85.66 596.975 85.54C596.828 85.4067 596.755 85.2067 596.755 84.94V83.52L600.075 83.1L600.895 76.84C600.935 76.64 601.021 76.48 601.155 76.36C601.301 76.2267 601.488 76.16 601.715 76.16H603.515V83.14H609.375V85.72H603.515V97.88C603.515 98.7333 603.721 99.3667 604.135 99.78C604.548 100.193 605.081 100.4 605.735 100.4C606.108 100.4 606.428 100.353 606.695 100.26C606.975 100.153 607.215 100.04 607.415 99.92C607.615 99.8 607.781 99.6933 607.915 99.6C608.061 99.4933 608.188 99.44 608.295 99.44C608.481 99.44 608.648 99.5533 608.795 99.78L609.835 101.48C609.221 102.053 608.481 102.507 607.615 102.84C606.748 103.16 605.855 103.32 604.935 103.32ZM630.53 82.74L619.23 108.98C619.11 109.247 618.957 109.46 618.77 109.62C618.597 109.78 618.324 109.86 617.95 109.86H615.31L619.01 101.82L610.65 82.74H613.73C614.037 82.74 614.277 82.82 614.45 82.98C614.637 83.1267 614.764 83.2933 614.83 83.48L620.25 96.24C620.464 96.8 620.644 97.3867 620.79 98C620.977 97.3733 621.177 96.78 621.39 96.22L626.65 83.48C626.73 83.2667 626.864 83.0933 627.05 82.96C627.25 82.8133 627.47 82.74 627.71 82.74H630.53ZM637.255 85.44C638.122 84.52 639.082 83.7867 640.135 83.24C641.189 82.6933 642.402 82.42 643.775 82.42C644.882 82.42 645.855 82.6067 646.695 82.98C647.549 83.34 648.255 83.86 648.815 84.54C649.389 85.2067 649.822 86.0133 650.115 86.96C650.409 87.9067 650.555 88.9533 650.555 90.1V103H646.975V90.1C646.975 88.5667 646.622 87.38 645.915 86.54C645.222 85.6867 644.162 85.26 642.735 85.26C641.682 85.26 640.695 85.5133 639.775 86.02C638.869 86.5267 638.029 87.2133 637.255 88.08V103H633.675V73.54H637.255V85.44ZM673.52 100.28V103H658.16V100.28H664.3V80.74C664.3 80.1533 664.32 79.56 664.36 78.96L659.26 83.34C659.087 83.4867 658.913 83.58 658.74 83.62C658.567 83.6467 658.407 83.6467 658.26 83.62C658.113 83.5933 657.973 83.54 657.84 83.46C657.72 83.38 657.627 83.2933 657.56 83.2L656.44 81.66L664.98 74.28H667.88V100.28H673.52ZM683.603 85.16C685.097 84.84 686.47 84.68 687.723 84.68C689.217 84.68 690.537 84.9 691.683 85.34C692.83 85.78 693.783 86.3867 694.543 87.16C695.317 87.9333 695.897 88.8467 696.283 89.9C696.683 90.9533 696.883 92.1 696.883 93.34C696.883 94.86 696.617 96.2333 696.083 97.46C695.563 98.6867 694.837 99.74 693.903 100.62C692.983 101.487 691.897 102.153 690.643 102.62C689.39 103.087 688.037 103.32 686.583 103.32C685.743 103.32 684.937 103.233 684.163 103.06C683.39 102.9 682.663 102.68 681.983 102.4C681.317 102.12 680.697 101.8 680.123 101.44C679.55 101.08 679.043 100.7 678.603 100.3L679.703 98.78C679.943 98.4333 680.257 98.26 680.643 98.26C680.91 98.26 681.21 98.3667 681.543 98.58C681.877 98.78 682.283 99.0067 682.763 99.26C683.243 99.5133 683.803 99.7467 684.443 99.96C685.097 100.16 685.87 100.26 686.763 100.26C687.763 100.26 688.663 100.1 689.463 99.78C690.263 99.46 690.95 99.0067 691.523 98.42C692.097 97.82 692.537 97.1067 692.843 96.28C693.15 95.4533 693.303 94.5267 693.303 93.5C693.303 92.6067 693.17 91.8 692.903 91.08C692.65 90.36 692.257 89.7467 691.723 89.24C691.203 88.7333 690.55 88.34 689.763 88.06C688.977 87.78 688.057 87.64 687.003 87.64C686.283 87.64 685.53 87.7 684.743 87.82C683.97 87.94 683.177 88.1333 682.363 88.4L680.123 87.74L682.423 74.34H696.003V75.9C696.003 76.4067 695.843 76.8267 695.523 77.16C695.217 77.48 694.683 77.64 693.923 77.64H684.923L683.603 85.16ZM702.166 82.1C702.353 80.7933 702.713 79.64 703.246 78.64C703.78 77.6267 704.453 76.78 705.266 76.1C706.093 75.42 707.033 74.9067 708.086 74.56C709.153 74.2 710.3 74.02 711.526 74.02C712.74 74.02 713.86 74.1933 714.886 74.54C715.913 74.8867 716.793 75.38 717.526 76.02C718.273 76.66 718.853 77.4333 719.266 78.34C719.68 79.2467 719.886 80.2533 719.886 81.36C719.886 82.2667 719.766 83.08 719.526 83.8C719.3 84.5067 718.966 85.1267 718.526 85.66C718.1 86.1933 717.58 86.6467 716.966 87.02C716.353 87.3933 715.666 87.7 714.906 87.94C716.773 88.42 718.173 89.2467 719.106 90.42C720.053 91.58 720.526 93.0333 720.526 94.78C720.526 96.1 720.273 97.2867 719.766 98.34C719.273 99.3933 718.593 100.293 717.726 101.04C716.86 101.773 715.846 102.34 714.686 102.74C713.54 103.127 712.306 103.32 710.986 103.32C709.466 103.32 708.166 103.133 707.086 102.76C706.006 102.373 705.093 101.847 704.346 101.18C703.6 100.513 702.986 99.7267 702.506 98.82C702.026 97.9 701.62 96.9067 701.286 95.84L702.826 95.2C703.226 95.0267 703.613 94.98 703.986 95.06C704.373 95.14 704.653 95.36 704.826 95.72C705 96.0933 705.213 96.54 705.466 97.06C705.733 97.58 706.093 98.08 706.546 98.56C707 99.04 707.573 99.4467 708.266 99.78C708.973 100.113 709.866 100.28 710.946 100.28C711.946 100.28 712.82 100.12 713.566 99.8C714.326 99.4667 714.953 99.04 715.446 98.52C715.953 98 716.333 97.42 716.586 96.78C716.84 96.14 716.966 95.5067 716.966 94.88C716.966 94.1067 716.866 93.4 716.666 92.76C716.466 92.12 716.093 91.5667 715.546 91.1C715 90.6333 714.246 90.2667 713.286 90C712.34 89.7333 711.12 89.6 709.626 89.6V87.02C710.853 87.0067 711.893 86.8733 712.746 86.62C713.613 86.3667 714.313 86.02 714.846 85.58C715.393 85.14 715.786 84.6133 716.026 84C716.28 83.3867 716.406 82.7067 716.406 81.96C716.406 81.1333 716.273 80.4133 716.006 79.8C715.753 79.1867 715.4 78.68 714.946 78.28C714.493 77.88 713.953 77.58 713.326 77.38C712.713 77.18 712.046 77.08 711.326 77.08C710.606 77.08 709.933 77.1867 709.306 77.4C708.693 77.6133 708.146 77.9133 707.666 78.3C707.2 78.6733 706.806 79.12 706.486 79.64C706.166 80.16 705.94 80.7333 705.806 81.36C705.633 81.8267 705.413 82.14 705.146 82.3C704.893 82.4467 704.52 82.4867 704.026 82.42L702.166 82.1Z" fill="black"/>
<path d="M153.792 210.79C154.119 210.123 154.512 209.6 154.972 209.22C155.432 208.84 155.985 208.65 156.632 208.65C156.852 208.65 157.059 208.677 157.252 208.73C157.452 208.777 157.625 208.85 157.772 208.95L157.642 210.42C157.595 210.6 157.485 210.69 157.312 210.69C157.219 210.69 157.079 210.673 156.892 210.64C156.705 210.6 156.505 210.58 156.292 210.58C155.979 210.58 155.702 210.627 155.462 210.72C155.222 210.807 155.005 210.94 154.812 211.12C154.625 211.293 154.459 211.51 154.312 211.77C154.165 212.023 154.029 212.313 153.902 212.64V219H151.952V208.84H153.072C153.285 208.84 153.429 208.88 153.502 208.96C153.582 209.033 153.639 209.167 153.672 209.36L153.792 210.79ZM165.635 212.79C165.635 212.403 165.578 212.047 165.465 211.72C165.358 211.393 165.198 211.11 164.985 210.87C164.772 210.63 164.512 210.443 164.205 210.31C163.898 210.177 163.545 210.11 163.145 210.11C162.325 210.11 161.678 210.347 161.205 210.82C160.738 211.293 160.442 211.95 160.315 212.79H165.635ZM167.245 217.55C167.005 217.83 166.728 218.073 166.415 218.28C166.102 218.48 165.768 218.643 165.415 218.77C165.062 218.897 164.695 218.99 164.315 219.05C163.942 219.11 163.572 219.14 163.205 219.14C162.505 219.14 161.855 219.023 161.255 218.79C160.662 218.55 160.145 218.203 159.705 217.75C159.272 217.29 158.932 216.723 158.685 216.05C158.445 215.37 158.325 214.59 158.325 213.71C158.325 213.003 158.435 212.347 158.655 211.74C158.875 211.127 159.188 210.593 159.595 210.14C160.008 209.687 160.512 209.33 161.105 209.07C161.698 208.81 162.365 208.68 163.105 208.68C163.725 208.68 164.295 208.783 164.815 208.99C165.342 209.19 165.795 209.483 166.175 209.87C166.555 210.257 166.852 210.733 167.065 211.3C167.285 211.867 167.395 212.513 167.395 213.24C167.395 213.54 167.362 213.743 167.295 213.85C167.228 213.95 167.105 214 166.925 214H160.265C160.285 214.607 160.372 215.137 160.525 215.59C160.678 216.037 160.888 216.41 161.155 216.71C161.428 217.01 161.752 217.233 162.125 217.38C162.498 217.527 162.915 217.6 163.375 217.6C163.808 217.6 164.182 217.55 164.495 217.45C164.815 217.35 165.088 217.243 165.315 217.13C165.548 217.01 165.742 216.9 165.895 216.8C166.055 216.7 166.195 216.65 166.315 216.65C166.475 216.65 166.598 216.71 166.685 216.83L167.245 217.55ZM175.481 210.59C175.428 210.677 175.371 210.74 175.311 210.78C175.251 210.813 175.174 210.83 175.081 210.83C174.974 210.83 174.854 210.793 174.721 210.72C174.594 210.647 174.438 210.567 174.251 210.48C174.071 210.393 173.858 210.313 173.611 210.24C173.364 210.167 173.071 210.13 172.731 210.13C172.451 210.13 172.194 210.167 171.961 210.24C171.734 210.307 171.541 210.403 171.381 210.53C171.221 210.65 171.098 210.797 171.011 210.97C170.924 211.137 170.881 211.317 170.881 211.51C170.881 211.763 170.954 211.973 171.101 212.14C171.254 212.307 171.451 212.45 171.691 212.57C171.938 212.69 172.214 212.8 172.521 212.9C172.834 212.993 173.151 213.093 173.471 213.2C173.798 213.307 174.114 213.43 174.421 213.57C174.734 213.703 175.011 213.873 175.251 214.08C175.498 214.28 175.694 214.523 175.841 214.81C175.994 215.097 176.071 215.447 176.071 215.86C176.071 216.333 175.984 216.773 175.811 217.18C175.644 217.58 175.394 217.927 175.061 218.22C174.734 218.513 174.328 218.743 173.841 218.91C173.354 219.077 172.798 219.16 172.171 219.16C171.471 219.16 170.824 219.043 170.231 218.81C169.638 218.577 169.141 218.28 168.741 217.92L169.201 217.17C169.254 217.077 169.321 217.007 169.401 216.96C169.481 216.907 169.588 216.88 169.721 216.88C169.848 216.88 169.978 216.927 170.111 217.02C170.244 217.113 170.404 217.217 170.591 217.33C170.778 217.437 171.004 217.537 171.271 217.63C171.538 217.717 171.871 217.76 172.271 217.76C172.604 217.76 172.894 217.72 173.141 217.64C173.388 217.553 173.591 217.44 173.751 217.3C173.918 217.153 174.041 216.987 174.121 216.8C174.201 216.613 174.241 216.417 174.241 216.21C174.241 215.943 174.164 215.723 174.011 215.55C173.864 215.37 173.668 215.217 173.421 215.09C173.181 214.963 172.904 214.853 172.591 214.76C172.278 214.667 171.958 214.567 171.631 214.46C171.304 214.353 170.984 214.23 170.671 214.09C170.358 213.95 170.078 213.773 169.831 213.56C169.591 213.347 169.394 213.087 169.241 212.78C169.094 212.473 169.021 212.1 169.021 211.66C169.021 211.267 169.101 210.89 169.261 210.53C169.428 210.17 169.664 209.853 169.971 209.58C170.284 209.307 170.668 209.09 171.121 208.93C171.581 208.763 172.104 208.68 172.691 208.68C173.364 208.68 173.971 208.787 174.511 209C175.058 209.213 175.524 209.507 175.911 209.88L175.481 210.59ZM182.513 208.68C183.259 208.68 183.933 208.803 184.533 209.05C185.139 209.29 185.653 209.64 186.073 210.1C186.499 210.553 186.826 211.103 187.053 211.75C187.279 212.39 187.393 213.11 187.393 213.91C187.393 214.71 187.279 215.433 187.053 216.08C186.826 216.727 186.499 217.277 186.073 217.73C185.653 218.183 185.139 218.533 184.533 218.78C183.933 219.02 183.259 219.14 182.513 219.14C181.759 219.14 181.079 219.02 180.473 218.78C179.873 218.533 179.359 218.183 178.933 217.73C178.506 217.277 178.176 216.727 177.943 216.08C177.716 215.433 177.603 214.71 177.603 213.91C177.603 213.11 177.716 212.39 177.943 211.75C178.176 211.103 178.506 210.553 178.933 210.1C179.359 209.64 179.873 209.29 180.473 209.05C181.079 208.803 181.759 208.68 182.513 208.68ZM182.513 217.62C183.473 217.62 184.189 217.297 184.663 216.65C185.136 216.003 185.373 215.093 185.373 213.92C185.373 212.747 185.136 211.837 184.663 211.19C184.189 210.537 183.473 210.21 182.513 210.21C181.539 210.21 180.813 210.537 180.333 211.19C179.859 211.837 179.623 212.747 179.623 213.92C179.623 215.093 179.859 216.003 180.333 216.65C180.813 217.297 181.539 217.62 182.513 217.62ZM191.569 204.24V219H189.609V204.24H191.569ZM203.174 208.84L199.054 219H197.294L193.174 208.84H194.784C194.938 208.84 195.064 208.877 195.164 208.95C195.264 209.023 195.331 209.117 195.364 209.23L197.794 215.47C197.881 215.73 197.954 215.99 198.014 216.25C198.081 216.503 198.141 216.757 198.194 217.01C198.248 216.757 198.308 216.503 198.374 216.25C198.441 215.997 198.521 215.737 198.614 215.47L201.074 209.23C201.114 209.117 201.184 209.023 201.284 208.95C201.384 208.877 201.504 208.84 201.644 208.84H203.174ZM211.163 212.79C211.163 212.403 211.106 212.047 210.993 211.72C210.886 211.393 210.726 211.11 210.513 210.87C210.299 210.63 210.039 210.443 209.733 210.31C209.426 210.177 209.073 210.11 208.673 210.11C207.853 210.11 207.206 210.347 206.733 210.82C206.266 211.293 205.969 211.95 205.843 212.79H211.163ZM212.773 217.55C212.533 217.83 212.256 218.073 211.943 218.28C211.629 218.48 211.296 218.643 210.943 218.77C210.589 218.897 210.223 218.99 209.843 219.05C209.469 219.11 209.099 219.14 208.733 219.14C208.033 219.14 207.383 219.023 206.783 218.79C206.189 218.55 205.673 218.203 205.233 217.75C204.799 217.29 204.459 216.723 204.213 216.05C203.973 215.37 203.853 214.59 203.853 213.71C203.853 213.003 203.963 212.347 204.183 211.74C204.403 211.127 204.716 210.593 205.123 210.14C205.536 209.687 206.039 209.33 206.633 209.07C207.226 208.81 207.893 208.68 208.633 208.68C209.253 208.68 209.823 208.783 210.343 208.99C210.869 209.19 211.323 209.483 211.703 209.87C212.083 210.257 212.379 210.733 212.593 211.3C212.813 211.867 212.923 212.513 212.923 213.24C212.923 213.54 212.889 213.743 212.823 213.85C212.756 213.95 212.633 214 212.453 214H205.793C205.813 214.607 205.899 215.137 206.053 215.59C206.206 216.037 206.416 216.41 206.683 216.71C206.956 217.01 207.279 217.233 207.653 217.38C208.026 217.527 208.443 217.6 208.903 217.6C209.336 217.6 209.709 217.55 210.023 217.45C210.343 217.35 210.616 217.243 210.843 217.13C211.076 217.01 211.269 216.9 211.423 216.8C211.583 216.7 211.723 216.65 211.843 216.65C212.003 216.65 212.126 216.71 212.213 216.83L212.773 217.55ZM216.858 210.79C217.185 210.123 217.578 209.6 218.038 209.22C218.498 208.84 219.052 208.65 219.698 208.65C219.918 208.65 220.125 208.677 220.318 208.73C220.518 208.777 220.692 208.85 220.838 208.95L220.708 210.42C220.662 210.6 220.552 210.69 220.378 210.69C220.285 210.69 220.145 210.673 219.958 210.64C219.772 210.6 219.572 210.58 219.358 210.58C219.045 210.58 218.768 210.627 218.528 210.72C218.288 210.807 218.072 210.94 217.878 211.12C217.692 211.293 217.525 211.51 217.378 211.77C217.232 212.023 217.095 212.313 216.968 212.64V219H215.018V208.84H216.138C216.352 208.84 216.495 208.88 216.568 208.96C216.648 209.033 216.705 209.167 216.738 209.36L216.858 210.79ZM232.962 210.59C232.908 210.677 232.852 210.74 232.792 210.78C232.732 210.813 232.655 210.83 232.562 210.83C232.455 210.83 232.335 210.793 232.202 210.72C232.075 210.647 231.918 210.567 231.732 210.48C231.552 210.393 231.338 210.313 231.092 210.24C230.845 210.167 230.552 210.13 230.212 210.13C229.932 210.13 229.675 210.167 229.442 210.24C229.215 210.307 229.022 210.403 228.862 210.53C228.702 210.65 228.578 210.797 228.492 210.97C228.405 211.137 228.362 211.317 228.362 211.51C228.362 211.763 228.435 211.973 228.582 212.14C228.735 212.307 228.932 212.45 229.172 212.57C229.418 212.69 229.695 212.8 230.002 212.9C230.315 212.993 230.632 213.093 230.952 213.2C231.278 213.307 231.595 213.43 231.902 213.57C232.215 213.703 232.492 213.873 232.732 214.08C232.978 214.28 233.175 214.523 233.322 214.81C233.475 215.097 233.552 215.447 233.552 215.86C233.552 216.333 233.465 216.773 233.292 217.18C233.125 217.58 232.875 217.927 232.542 218.22C232.215 218.513 231.808 218.743 231.322 218.91C230.835 219.077 230.278 219.16 229.652 219.16C228.952 219.16 228.305 219.043 227.712 218.81C227.118 218.577 226.622 218.28 226.222 217.92L226.682 217.17C226.735 217.077 226.802 217.007 226.882 216.96C226.962 216.907 227.068 216.88 227.202 216.88C227.328 216.88 227.458 216.927 227.592 217.02C227.725 217.113 227.885 217.217 228.072 217.33C228.258 217.437 228.485 217.537 228.752 217.63C229.018 217.717 229.352 217.76 229.752 217.76C230.085 217.76 230.375 217.72 230.622 217.64C230.868 217.553 231.072 217.44 231.232 217.3C231.398 217.153 231.522 216.987 231.602 216.8C231.682 216.613 231.722 216.417 231.722 216.21C231.722 215.943 231.645 215.723 231.492 215.55C231.345 215.37 231.148 215.217 230.902 215.09C230.662 214.963 230.385 214.853 230.072 214.76C229.758 214.667 229.438 214.567 229.112 214.46C228.785 214.353 228.465 214.23 228.152 214.09C227.838 213.95 227.558 213.773 227.312 213.56C227.072 213.347 226.875 213.087 226.722 212.78C226.575 212.473 226.502 212.1 226.502 211.66C226.502 211.267 226.582 210.89 226.742 210.53C226.908 210.17 227.145 209.853 227.452 209.58C227.765 209.307 228.148 209.09 228.602 208.93C229.062 208.763 229.585 208.68 230.172 208.68C230.845 208.68 231.452 208.787 231.992 209C232.538 209.213 233.005 209.507 233.392 209.88L232.962 210.59ZM242.393 212.79C242.393 212.403 242.336 212.047 242.223 211.72C242.116 211.393 241.956 211.11 241.743 210.87C241.53 210.63 241.27 210.443 240.963 210.31C240.656 210.177 240.303 210.11 239.903 210.11C239.083 210.11 238.436 210.347 237.963 210.82C237.496 211.293 237.2 211.95 237.073 212.79H242.393ZM244.003 217.55C243.763 217.83 243.486 218.073 243.173 218.28C242.86 218.48 242.526 218.643 242.173 218.77C241.82 218.897 241.453 218.99 241.073 219.05C240.7 219.11 240.33 219.14 239.963 219.14C239.263 219.14 238.613 219.023 238.013 218.79C237.42 218.55 236.903 218.203 236.463 217.75C236.03 217.29 235.69 216.723 235.443 216.05C235.203 215.37 235.083 214.59 235.083 213.71C235.083 213.003 235.193 212.347 235.413 211.74C235.633 211.127 235.946 210.593 236.353 210.14C236.766 209.687 237.27 209.33 237.863 209.07C238.456 208.81 239.123 208.68 239.863 208.68C240.483 208.68 241.053 208.783 241.573 208.99C242.1 209.19 242.553 209.483 242.933 209.87C243.313 210.257 243.61 210.733 243.823 211.3C244.043 211.867 244.153 212.513 244.153 213.24C244.153 213.54 244.12 213.743 244.053 213.85C243.986 213.95 243.863 214 243.683 214H237.023C237.043 214.607 237.13 215.137 237.283 215.59C237.436 216.037 237.646 216.41 237.913 216.71C238.186 217.01 238.51 217.233 238.883 217.38C239.256 217.527 239.673 217.6 240.133 217.6C240.566 217.6 240.94 217.55 241.253 217.45C241.573 217.35 241.846 217.243 242.073 217.13C242.306 217.01 242.5 216.9 242.653 216.8C242.813 216.7 242.953 216.65 243.073 216.65C243.233 216.65 243.356 216.71 243.443 216.83L244.003 217.55ZM248.089 210.79C248.416 210.123 248.809 209.6 249.269 209.22C249.729 208.84 250.282 208.65 250.929 208.65C251.149 208.65 251.356 208.677 251.549 208.73C251.749 208.777 251.922 208.85 252.069 208.95L251.939 210.42C251.892 210.6 251.782 210.69 251.609 210.69C251.516 210.69 251.376 210.673 251.189 210.64C251.002 210.6 250.802 210.58 250.589 210.58C250.276 210.58 249.999 210.627 249.759 210.72C249.519 210.807 249.302 210.94 249.109 211.12C248.922 211.293 248.756 211.51 248.609 211.77C248.462 212.023 248.326 212.313 248.199 212.64V219H246.249V208.84H247.369C247.582 208.84 247.726 208.88 247.799 208.96C247.879 209.033 247.936 209.167 247.969 209.36L248.089 210.79ZM262.393 208.84L258.273 219H256.513L252.393 208.84H254.003C254.156 208.84 254.283 208.877 254.383 208.95C254.483 209.023 254.55 209.117 254.583 209.23L257.013 215.47C257.1 215.73 257.173 215.99 257.233 216.25C257.3 216.503 257.36 216.757 257.413 217.01C257.466 216.757 257.526 216.503 257.593 216.25C257.66 215.997 257.74 215.737 257.833 215.47L260.293 209.23C260.333 209.117 260.403 209.023 260.503 208.95C260.603 208.877 260.723 208.84 260.863 208.84H262.393ZM265.984 208.84V219H264.034V208.84H265.984ZM266.354 205.7C266.354 205.88 266.318 206.053 266.244 206.22C266.171 206.38 266.071 206.523 265.944 206.65C265.824 206.77 265.681 206.867 265.514 206.94C265.348 207.007 265.174 207.04 264.994 207.04C264.814 207.04 264.644 207.007 264.484 206.94C264.324 206.867 264.181 206.77 264.054 206.65C263.934 206.523 263.838 206.38 263.764 206.22C263.698 206.053 263.664 205.88 263.664 205.7C263.664 205.513 263.698 205.34 263.764 205.18C263.838 205.013 263.934 204.87 264.054 204.75C264.181 204.623 264.324 204.527 264.484 204.46C264.644 204.387 264.814 204.35 264.994 204.35C265.174 204.35 265.348 204.387 265.514 204.46C265.681 204.527 265.824 204.623 265.944 204.75C266.071 204.87 266.171 205.013 266.244 205.18C266.318 205.34 266.354 205.513 266.354 205.7ZM275.928 210.74C275.868 210.813 275.808 210.873 275.748 210.92C275.694 210.96 275.614 210.98 275.508 210.98C275.401 210.98 275.288 210.94 275.168 210.86C275.054 210.773 274.908 210.683 274.728 210.59C274.554 210.49 274.341 210.4 274.088 210.32C273.841 210.233 273.534 210.19 273.168 210.19C272.688 210.19 272.264 210.277 271.898 210.45C271.531 210.623 271.224 210.87 270.978 211.19C270.738 211.51 270.554 211.9 270.428 212.36C270.301 212.82 270.238 213.337 270.238 213.91C270.238 214.503 270.304 215.033 270.438 215.5C270.571 215.96 270.761 216.35 271.008 216.67C271.254 216.983 271.554 217.223 271.908 217.39C272.261 217.55 272.654 217.63 273.087 217.63C273.508 217.63 273.854 217.58 274.128 217.48C274.401 217.373 274.628 217.26 274.808 217.14C274.988 217.02 275.138 216.91 275.258 216.81C275.378 216.703 275.501 216.65 275.628 216.65C275.788 216.65 275.911 216.71 275.998 216.83L276.558 217.55C276.324 217.837 276.061 218.08 275.768 218.28C275.481 218.48 275.174 218.643 274.848 218.77C274.521 218.897 274.178 218.99 273.818 219.05C273.464 219.11 273.104 219.14 272.738 219.14C272.104 219.14 271.511 219.023 270.958 218.79C270.411 218.557 269.934 218.217 269.528 217.77C269.128 217.323 268.811 216.777 268.578 216.13C268.344 215.477 268.228 214.737 268.228 213.91C268.228 213.157 268.331 212.46 268.538 211.82C268.751 211.18 269.061 210.63 269.468 210.17C269.881 209.703 270.388 209.34 270.988 209.08C271.588 208.813 272.274 208.68 273.048 208.68C273.774 208.68 274.414 208.797 274.968 209.03C275.521 209.263 276.014 209.593 276.448 210.02L275.928 210.74ZM284.932 212.79C284.932 212.403 284.875 212.047 284.762 211.72C284.655 211.393 284.495 211.11 284.282 210.87C284.069 210.63 283.809 210.443 283.502 210.31C283.195 210.177 282.842 210.11 282.442 210.11C281.622 210.11 280.975 210.347 280.502 210.82C280.035 211.293 279.739 211.95 279.612 212.79H284.932ZM286.542 217.55C286.302 217.83 286.025 218.073 285.712 218.28C285.399 218.48 285.065 218.643 284.712 218.77C284.359 218.897 283.992 218.99 283.612 219.05C283.239 219.11 282.869 219.14 282.502 219.14C281.802 219.14 281.152 219.023 280.552 218.79C279.959 218.55 279.442 218.203 279.002 217.75C278.569 217.29 278.229 216.723 277.982 216.05C277.742 215.37 277.622 214.59 277.622 213.71C277.622 213.003 277.732 212.347 277.952 211.74C278.172 211.127 278.485 210.593 278.892 210.14C279.305 209.687 279.809 209.33 280.402 209.07C280.995 208.81 281.662 208.68 282.402 208.68C283.022 208.68 283.592 208.783 284.112 208.99C284.639 209.19 285.092 209.483 285.472 209.87C285.852 210.257 286.149 210.733 286.362 211.3C286.582 211.867 286.692 212.513 286.692 213.24C286.692 213.54 286.659 213.743 286.592 213.85C286.525 213.95 286.402 214 286.222 214H279.562C279.582 214.607 279.669 215.137 279.822 215.59C279.975 216.037 280.185 216.41 280.452 216.71C280.725 217.01 281.049 217.233 281.422 217.38C281.795 217.527 282.212 217.6 282.672 217.6C283.105 217.6 283.479 217.55 283.792 217.45C284.112 217.35 284.385 217.243 284.612 217.13C284.845 217.01 285.039 216.9 285.192 216.8C285.352 216.7 285.492 216.65 285.612 216.65C285.772 216.65 285.895 216.71 285.982 216.83L286.542 217.55Z" fill="#F47D21"/>
<path d="M415.154 216.5C415.474 216.92 415.817 217.213 416.184 217.38C416.557 217.547 416.974 217.63 417.434 217.63C418.327 217.63 419.017 217.31 419.504 216.67C419.997 216.023 420.244 215.083 420.244 213.85C420.244 213.203 420.187 212.653 420.074 212.2C419.967 211.74 419.807 211.367 419.594 211.08C419.387 210.787 419.131 210.573 418.824 210.44C418.517 210.3 418.171 210.23 417.784 210.23C417.217 210.23 416.724 210.357 416.304 210.61C415.891 210.863 415.507 211.223 415.154 211.69V216.5ZM415.054 210.36C415.267 210.107 415.494 209.877 415.734 209.67C415.981 209.457 416.244 209.277 416.524 209.13C416.804 208.977 417.101 208.86 417.414 208.78C417.734 208.693 418.074 208.65 418.434 208.65C419.014 208.65 419.537 208.763 420.004 208.99C420.477 209.217 420.881 209.55 421.214 209.99C421.547 210.43 421.804 210.973 421.984 211.62C422.171 212.267 422.264 213.01 422.264 213.85C422.264 214.603 422.161 215.303 421.954 215.95C421.754 216.59 421.464 217.147 421.084 217.62C420.711 218.093 420.251 218.467 419.704 218.74C419.164 219.007 418.554 219.14 417.874 219.14C417.267 219.14 416.747 219.04 416.314 218.84C415.881 218.64 415.494 218.36 415.154 218V222.41H413.204V208.84H414.374C414.647 208.84 414.817 208.97 414.884 209.23L415.054 210.36ZM426.294 210.79C426.621 210.123 427.014 209.6 427.474 209.22C427.934 208.84 428.487 208.65 429.134 208.65C429.354 208.65 429.561 208.677 429.754 208.73C429.954 208.777 430.127 208.85 430.274 208.95L430.144 210.42C430.097 210.6 429.987 210.69 429.814 210.69C429.721 210.69 429.581 210.673 429.394 210.64C429.207 210.6 429.007 210.58 428.794 210.58C428.481 210.58 428.204 210.627 427.964 210.72C427.724 210.807 427.507 210.94 427.314 211.12C427.127 211.293 426.961 211.51 426.814 211.77C426.667 212.023 426.531 212.313 426.404 212.64V219H424.454V208.84H425.574C425.787 208.84 425.931 208.88 426.004 208.96C426.084 209.033 426.141 209.167 426.174 209.36L426.294 210.79ZM438.137 212.79C438.137 212.403 438.08 212.047 437.967 211.72C437.86 211.393 437.7 211.11 437.487 210.87C437.274 210.63 437.014 210.443 436.707 210.31C436.4 210.177 436.047 210.11 435.647 210.11C434.827 210.11 434.18 210.347 433.707 210.82C433.24 211.293 432.944 211.95 432.817 212.79H438.137ZM439.747 217.55C439.507 217.83 439.23 218.073 438.917 218.28C438.604 218.48 438.27 218.643 437.917 218.77C437.564 218.897 437.197 218.99 436.817 219.05C436.444 219.11 436.074 219.14 435.707 219.14C435.007 219.14 434.357 219.023 433.757 218.79C433.164 218.55 432.647 218.203 432.207 217.75C431.774 217.29 431.434 216.723 431.187 216.05C430.947 215.37 430.827 214.59 430.827 213.71C430.827 213.003 430.937 212.347 431.157 211.74C431.377 211.127 431.69 210.593 432.097 210.14C432.51 209.687 433.014 209.33 433.607 209.07C434.2 208.81 434.867 208.68 435.607 208.68C436.227 208.68 436.797 208.783 437.317 208.99C437.844 209.19 438.297 209.483 438.677 209.87C439.057 210.257 439.354 210.733 439.567 211.3C439.787 211.867 439.897 212.513 439.897 213.24C439.897 213.54 439.864 213.743 439.797 213.85C439.73 213.95 439.607 214 439.427 214H432.767C432.787 214.607 432.874 215.137 433.027 215.59C433.18 216.037 433.39 216.41 433.657 216.71C433.93 217.01 434.254 217.233 434.627 217.38C435 217.527 435.417 217.6 435.877 217.6C436.31 217.6 436.684 217.55 436.997 217.45C437.317 217.35 437.59 217.243 437.817 217.13C438.05 217.01 438.244 216.9 438.397 216.8C438.557 216.7 438.697 216.65 438.817 216.65C438.977 216.65 439.1 216.71 439.187 216.83L439.747 217.55ZM442.556 219V210.44L441.496 210.31C441.343 210.277 441.216 210.223 441.116 210.15C441.023 210.07 440.976 209.957 440.976 209.81V209H442.556V208.51C442.556 207.89 442.653 207.32 442.846 206.8C443.046 206.273 443.343 205.82 443.736 205.44C444.136 205.06 444.629 204.767 445.216 204.56C445.809 204.347 446.503 204.24 447.296 204.24C447.549 204.24 447.816 204.257 448.096 204.29C448.376 204.323 448.613 204.373 448.806 204.44L448.736 205.46C448.723 205.593 448.639 205.663 448.486 205.67C448.333 205.677 448.119 205.68 447.846 205.68C447.239 205.68 446.723 205.74 446.296 205.86C445.869 205.98 445.519 206.16 445.246 206.4C444.973 206.64 444.773 206.943 444.646 207.31C444.519 207.67 444.456 208.09 444.456 208.57V209H450.636V219H448.676V210.42H444.516V219H442.556ZM461.978 219H460.098C459.945 219 459.821 218.96 459.728 218.88C459.641 218.793 459.571 218.703 459.518 218.61L457.068 214.74C457.035 214.84 457.001 214.937 456.968 215.03C456.935 215.123 456.891 215.21 456.838 215.29L454.588 218.61C454.521 218.703 454.445 218.793 454.358 218.88C454.271 218.96 454.158 219 454.018 219H452.278L455.818 213.77L452.418 208.84H454.298C454.451 208.84 454.561 208.863 454.628 208.91C454.701 208.957 454.765 209.027 454.818 209.12L457.228 212.83C457.261 212.73 457.298 212.633 457.338 212.54C457.378 212.44 457.431 212.337 457.498 212.23L459.568 209.16C459.688 208.947 459.848 208.84 460.048 208.84H461.838L458.438 213.68L461.978 219Z" fill="#047EAA"/>
<path d="M623.598 210.59C623.545 210.677 623.488 210.74 623.428 210.78C623.368 210.813 623.292 210.83 623.198 210.83C623.092 210.83 622.972 210.793 622.838 210.72C622.712 210.647 622.555 210.567 622.368 210.48C622.188 210.393 621.975 210.313 621.728 210.24C621.482 210.167 621.188 210.13 620.848 210.13C620.568 210.13 620.312 210.167 620.078 210.24C619.852 210.307 619.658 210.403 619.498 210.53C619.338 210.65 619.215 210.797 619.128 210.97C619.042 211.137 618.998 211.317 618.998 211.51C618.998 211.763 619.072 211.973 619.218 212.14C619.372 212.307 619.568 212.45 619.808 212.57C620.055 212.69 620.332 212.8 620.638 212.9C620.952 212.993 621.268 213.093 621.588 213.2C621.915 213.307 622.232 213.43 622.538 213.57C622.852 213.703 623.128 213.873 623.368 214.08C623.615 214.28 623.812 214.523 623.958 214.81C624.112 215.097 624.188 215.447 624.188 215.86C624.188 216.333 624.102 216.773 623.928 217.18C623.762 217.58 623.512 217.927 623.178 218.22C622.852 218.513 622.445 218.743 621.958 218.91C621.472 219.077 620.915 219.16 620.288 219.16C619.588 219.16 618.942 219.043 618.348 218.81C617.755 218.577 617.258 218.28 616.858 217.92L617.318 217.17C617.372 217.077 617.438 217.007 617.518 216.96C617.598 216.907 617.705 216.88 617.838 216.88C617.965 216.88 618.095 216.927 618.228 217.02C618.362 217.113 618.522 217.217 618.708 217.33C618.895 217.437 619.122 217.537 619.388 217.63C619.655 217.717 619.988 217.76 620.388 217.76C620.722 217.76 621.012 217.72 621.258 217.64C621.505 217.553 621.708 217.44 621.868 217.3C622.035 217.153 622.158 216.987 622.238 216.8C622.318 216.613 622.358 216.417 622.358 216.21C622.358 215.943 622.282 215.723 622.128 215.55C621.982 215.37 621.785 215.217 621.538 215.09C621.298 214.963 621.022 214.853 620.708 214.76C620.395 214.667 620.075 214.567 619.748 214.46C619.422 214.353 619.102 214.23 618.788 214.09C618.475 213.95 618.195 213.773 617.948 213.56C617.708 213.347 617.512 213.087 617.358 212.78C617.212 212.473 617.138 212.1 617.138 211.66C617.138 211.267 617.218 210.89 617.378 210.53C617.545 210.17 617.782 209.853 618.088 209.58C618.402 209.307 618.785 209.09 619.238 208.93C619.698 208.763 620.222 208.68 620.808 208.68C621.482 208.68 622.088 208.787 622.628 209C623.175 209.213 623.642 209.507 624.028 209.88L623.598 210.59ZM634.75 208.84V219H633.58C633.313 219 633.14 218.87 633.06 218.61L632.92 217.59C632.7 217.823 632.47 218.037 632.23 218.23C631.99 218.423 631.733 218.59 631.46 218.73C631.186 218.863 630.896 218.967 630.59 219.04C630.283 219.12 629.953 219.16 629.6 219.16C629.04 219.16 628.546 219.067 628.12 218.88C627.7 218.693 627.346 218.433 627.06 218.1C626.773 217.76 626.556 217.353 626.41 216.88C626.263 216.407 626.19 215.883 626.19 215.31V208.84H628.15V215.31C628.15 216.037 628.316 216.603 628.65 217.01C628.983 217.41 629.493 217.61 630.18 217.61C630.68 217.61 631.146 217.493 631.58 217.26C632.013 217.02 632.42 216.693 632.8 216.28V208.84H634.75ZM638.152 219V210.44L637.092 210.31C636.938 210.277 636.812 210.223 636.712 210.15C636.618 210.07 636.572 209.957 636.572 209.81V209H638.152V208.51C638.152 207.89 638.248 207.32 638.442 206.8C638.642 206.273 638.938 205.82 639.332 205.44C639.732 205.06 640.225 204.767 640.812 204.56C641.405 204.347 642.098 204.24 642.892 204.24C643.145 204.24 643.412 204.257 643.692 204.29C643.972 204.323 644.208 204.373 644.402 204.44L644.332 205.46C644.318 205.593 644.235 205.663 644.082 205.67C643.928 205.677 643.715 205.68 643.442 205.68C642.835 205.68 642.318 205.74 641.892 205.86C641.465 205.98 641.115 206.16 640.842 206.4C640.568 206.64 640.368 206.943 640.242 207.31C640.115 207.67 640.052 208.09 640.052 208.57V209H646.232V219H644.272V210.42H640.112V219H638.152ZM657.574 219H655.694C655.54 219 655.417 218.96 655.324 218.88C655.237 218.793 655.167 218.703 655.114 218.61L652.664 214.74C652.63 214.84 652.597 214.937 652.564 215.03C652.53 215.123 652.487 215.21 652.434 215.29L650.184 218.61C650.117 218.703 650.04 218.793 649.954 218.88C649.867 218.96 649.754 219 649.614 219H647.874L651.414 213.77L648.014 208.84H649.894C650.047 208.84 650.157 208.863 650.224 208.91C650.297 208.957 650.36 209.027 650.414 209.12L652.824 212.83C652.857 212.73 652.894 212.633 652.934 212.54C652.974 212.44 653.027 212.337 653.094 212.23L655.164 209.16C655.284 208.947 655.444 208.84 655.644 208.84H657.434L654.034 213.68L657.574 219Z" fill="black"/>
</svg>
