<svg width="850" height="150" viewBox="0 0 850 150" fill="none" xmlns="http://www.w3.org/2000/svg">
<rect width="850" height="150" fill="white"/>
<path d="M134.486 61.696V73.504H150.422V81.856H134.486V100H123.606V53.376H153.622V61.696H134.486ZM180.621 82.176L176.301 69.408C175.981 68.5973 175.639 67.648 175.277 66.56C174.914 65.4507 174.551 64.256 174.189 62.976C173.869 64.2773 173.527 65.4827 173.165 66.592C172.802 67.7013 172.461 68.6613 172.141 69.472L167.853 82.176H180.621ZM197.805 100H189.421C188.482 100 187.725 99.7867 187.149 99.36C186.573 98.912 186.135 98.3467 185.837 97.664L183.085 89.536H165.357L162.605 97.664C162.37 98.2613 161.943 98.8053 161.325 99.296C160.727 99.7653 159.981 100 159.085 100H150.637L168.685 53.376H179.757L197.805 100ZM212.361 100H201.481V53.376H212.361V100ZM236.524 75.296C237.996 75.296 239.244 75.1147 240.268 74.752C241.313 74.368 242.166 73.8453 242.828 73.184C243.489 72.5227 243.969 71.7547 244.268 70.88C244.566 69.984 244.716 69.024 244.716 68C244.716 65.952 244.044 64.352 242.7 63.2C241.377 62.048 239.318 61.472 236.524 61.472H232.172V75.296H236.524ZM259.5 100H249.708C247.894 100 246.593 99.3173 245.804 97.952L238.06 84.416C237.697 83.84 237.292 83.424 236.844 83.168C236.396 82.8907 235.756 82.752 234.924 82.752H232.172V100H221.356V53.376H236.524C239.894 53.376 242.764 53.728 245.132 54.432C247.521 55.1147 249.462 56.0747 250.956 57.312C252.47 58.5493 253.569 60.0107 254.252 61.696C254.934 63.3813 255.276 65.216 255.276 67.2C255.276 68.7147 255.073 70.144 254.668 71.488C254.262 72.832 253.665 74.08 252.876 75.232C252.086 76.3627 251.105 77.376 249.932 78.272C248.78 79.168 247.446 79.904 245.932 80.48C246.636 80.8427 247.297 81.3013 247.916 81.856C248.534 82.3893 249.089 83.0293 249.58 83.776L259.5 100Z" fill="#047EAA"/>
<path d="M424.046 76.85L420.246 84.05H438.746V95.15H414.396L408.546 106.3H397.546L403.396 95.15H393.246V84.05H409.246L413.046 76.85H393.246V65.7H418.896L424.246 55.5H435.246L429.896 65.7H438.746V76.85H424.046Z" fill="#F47D21"/>
<path d="M622.553 76.672C622.553 80.0427 621.967 83.1787 620.793 86.08C619.641 88.9813 618.009 91.5093 615.897 93.664C613.785 95.7973 611.236 97.472 608.249 98.688C605.284 99.904 601.988 100.512 598.361 100.512C594.735 100.512 591.428 99.904 588.441 98.688C585.455 97.472 582.895 95.7973 580.761 93.664C578.649 91.5093 577.007 88.9813 575.833 86.08C574.681 83.1787 574.105 80.0427 574.105 76.672C574.105 73.3013 574.681 70.1653 575.833 67.264C577.007 64.3627 578.649 61.8453 580.761 59.712C582.895 57.5787 585.455 55.904 588.441 54.688C591.428 53.472 594.735 52.864 598.361 52.864C601.988 52.864 605.284 53.4827 608.249 54.72C611.236 55.936 613.785 57.6107 615.897 59.744C618.009 61.8773 619.641 64.3947 620.793 67.296C621.967 70.1973 622.553 73.3227 622.553 76.672ZM611.481 76.672C611.481 74.368 611.183 72.2987 610.585 70.464C609.988 68.608 609.124 67.04 607.993 65.76C606.884 64.48 605.519 63.4987 603.897 62.816C602.276 62.1333 600.431 61.792 598.361 61.792C596.271 61.792 594.404 62.1333 592.761 62.816C591.14 63.4987 589.764 64.48 588.633 65.76C587.524 67.04 586.671 68.608 586.073 70.464C585.476 72.2987 585.177 74.368 585.177 76.672C585.177 78.9973 585.476 81.088 586.073 82.944C586.671 84.7787 587.524 86.336 588.633 87.616C589.764 88.896 591.14 89.8773 592.761 90.56C594.404 91.2213 596.271 91.552 598.361 91.552C600.431 91.552 602.276 91.2213 603.897 90.56C605.519 89.8773 606.884 88.896 607.993 87.616C609.124 86.336 609.988 84.7787 610.585 82.944C611.183 81.088 611.481 78.9973 611.481 76.672ZM637.186 90.976C637.933 91.7867 638.744 92.3627 639.618 92.704C640.493 93.0453 641.41 93.216 642.37 93.216C643.288 93.216 644.13 93.0347 644.898 92.672C645.666 92.3093 646.328 91.7333 646.882 90.944C647.458 90.1333 647.906 89.088 648.226 87.808C648.546 86.528 648.706 84.9707 648.706 83.136C648.706 81.3867 648.578 79.9147 648.322 78.72C648.066 77.5253 647.704 76.5653 647.234 75.84C646.786 75.0933 646.242 74.56 645.602 74.24C644.962 73.92 644.248 73.76 643.458 73.76C642.008 73.76 640.813 74.0267 639.874 74.56C638.936 75.0933 638.04 75.872 637.186 76.896V90.976ZM636.578 70.912C637.88 69.5253 639.352 68.3947 640.994 67.52C642.658 66.624 644.632 66.176 646.914 66.176C648.642 66.176 650.242 66.56 651.714 67.328C653.186 68.096 654.456 69.2053 655.522 70.656C656.589 72.1067 657.421 73.888 658.018 76C658.637 78.0907 658.946 80.4693 658.946 83.136C658.946 85.632 658.594 87.936 657.89 90.048C657.208 92.16 656.237 93.9947 654.978 95.552C653.741 97.1093 652.248 98.3253 650.498 99.2C648.77 100.075 646.85 100.512 644.738 100.512C643.01 100.512 641.56 100.267 640.386 99.776C639.213 99.2853 638.146 98.624 637.186 97.792V110.528H627.266V66.816H633.41C634.648 66.816 635.458 67.3707 635.842 68.48L636.578 70.912ZM684.719 79.424C684.719 78.6347 684.612 77.8667 684.399 77.12C684.207 76.3733 683.876 75.712 683.407 75.136C682.959 74.5387 682.361 74.0587 681.615 73.696C680.868 73.3333 679.961 73.152 678.895 73.152C677.017 73.152 675.545 73.696 674.479 74.784C673.412 75.8507 672.708 77.3973 672.367 79.424H684.719ZM672.239 85.184C672.559 87.9573 673.401 89.9733 674.767 91.232C676.132 92.4693 677.892 93.088 680.047 93.088C681.199 93.088 682.191 92.9493 683.023 92.672C683.855 92.3947 684.591 92.0853 685.231 91.744C685.892 91.4027 686.489 91.0933 687.023 90.816C687.577 90.5387 688.153 90.4 688.751 90.4C689.54 90.4 690.137 90.688 690.543 91.264L693.423 94.816C692.399 95.9893 691.289 96.9493 690.095 97.696C688.921 98.4213 687.705 98.9973 686.447 99.424C685.209 99.8293 683.961 100.107 682.703 100.256C681.465 100.427 680.281 100.512 679.151 100.512C676.825 100.512 674.639 100.139 672.591 99.392C670.564 98.624 668.783 97.4933 667.247 96C665.732 94.5067 664.527 92.6507 663.631 90.432C662.756 88.2133 662.319 85.632 662.319 82.688C662.319 80.4693 662.692 78.368 663.439 76.384C664.207 74.4 665.295 72.6613 666.703 71.168C668.132 69.6747 669.849 68.4907 671.855 67.616C673.881 66.7413 676.164 66.304 678.703 66.304C680.9 66.304 682.905 66.6453 684.719 67.328C686.553 68.0107 688.121 69.0027 689.423 70.304C690.745 71.6053 691.769 73.2053 692.495 75.104C693.241 76.9813 693.615 79.1147 693.615 81.504C693.615 82.2507 693.583 82.8587 693.519 83.328C693.455 83.7973 693.337 84.1707 693.167 84.448C692.996 84.7253 692.761 84.9173 692.463 85.024C692.185 85.1307 691.823 85.184 691.375 85.184H672.239ZM707.731 70.4C708.371 69.8027 709.032 69.248 709.715 68.736C710.397 68.224 711.123 67.7973 711.891 67.456C712.68 67.0933 713.523 66.816 714.419 66.624C715.336 66.4107 716.328 66.304 717.395 66.304C719.208 66.304 720.808 66.624 722.195 67.264C723.603 67.8827 724.787 68.7573 725.747 69.888C726.707 70.9973 727.432 72.3307 727.923 73.888C728.413 75.424 728.659 77.0987 728.659 78.912V100H718.739V78.912C718.739 77.2907 718.365 76.032 717.619 75.136C716.872 74.2187 715.773 73.76 714.323 73.76C713.235 73.76 712.211 73.9947 711.251 74.464C710.312 74.912 709.395 75.5307 708.499 76.32V100H698.579V66.816H704.723C705.96 66.816 706.771 67.3707 707.155 68.48L707.731 70.4Z" fill="#047EAA"/>
</svg>
